<svg width="32" height="32" viewBox="0 0 32 32" fill="none" xmlns="http://www.w3.org/2000/svg">
<path d="M17.4668 11.6H14.5335V8.66665H17.4668M17.4668 23.3333H14.5335V14.5333H17.4668M16.0002 1.33331C14.0741 1.33331 12.1669 1.71268 10.3875 2.44975C8.60803 3.18682 6.99119 4.26715 5.62926 5.62908C2.87873 8.37961 1.3335 12.1101 1.3335 16C1.3335 19.8898 2.87873 23.6203 5.62926 26.3709C6.99119 27.7328 8.60803 28.8131 10.3875 29.5502C12.1669 30.2873 14.0741 30.6666 16.0002 30.6666C19.89 30.6666 23.6205 29.1214 26.3711 26.3709C29.1216 23.6203 30.6668 19.8898 30.6668 16C30.6668 14.0739 30.2875 12.1667 29.5504 10.3873C28.8133 8.60785 27.733 6.99101 26.3711 5.62908C25.0091 4.26715 23.3923 3.18682 21.6129 2.44975C19.8334 1.71268 17.9262 1.33331 16.0002 1.33331Z" fill="black"/>
<path d="M17.3332 12H14.6665V9.33335H17.3332M17.3332 22.6667H14.6665V14.6667H17.3332M15.9998 2.66669C14.2489 2.66669 12.5151 3.01156 10.8974 3.68163C9.27972 4.35169 7.80986 5.33382 6.57175 6.57193C4.07126 9.07241 2.6665 12.4638 2.6665 16C2.6665 19.5362 4.07126 22.9276 6.57175 25.4281C7.80986 26.6662 9.27972 27.6484 10.8974 28.3184C12.5151 28.9885 14.2489 29.3334 15.9998 29.3334C19.5361 29.3334 22.9274 27.9286 25.4279 25.4281C27.9284 22.9276 29.3332 19.5362 29.3332 16C29.3332 14.2491 28.9883 12.5152 28.3182 10.8976C27.6482 9.2799 26.666 7.81004 25.4279 6.57193C24.1898 5.33382 22.72 4.35169 21.1023 3.68163C19.4846 3.01156 17.7508 2.66669 15.9998 2.66669Z" fill="#C39BE9"/>
</svg>
