<svg width="24" height="24" viewBox="0 0 24 24" fill="none" xmlns="http://www.w3.org/2000/svg">
<g clip-path="url(#clip0_112_453)">
<path fill-rule="evenodd" clip-rule="evenodd" d="M7.93999 13.06C7.65909 12.7787 7.50131 12.3975 7.50131 12C7.50131 11.6025 7.65909 11.2213 7.93999 10.94L13.596 5.282C13.8774 5.00074 14.259 4.84278 14.6568 4.84287C15.0547 4.84297 15.4362 5.00111 15.7175 5.2825C15.9988 5.56389 16.1567 5.9455 16.1566 6.34335C16.1565 6.74121 15.9984 7.12274 15.717 7.404L11.121 12L15.717 16.596C15.9904 16.8788 16.1417 17.2576 16.1385 17.6509C16.1353 18.0442 15.9777 18.4205 15.6997 18.6987C15.4217 18.977 15.0456 19.1349 14.6523 19.1385C14.259 19.1421 13.88 18.9911 13.597 18.718L7.93899 13.061L7.93999 13.06Z" fill="#493767"/>
</g>
<defs>
<clipPath id="clip0_112_453">
<rect width="24" height="24" fill="white" transform="matrix(0 1 -1 0 24 0)"/>
</clipPath>
</defs>
</svg>
