<svg width="18" height="20" viewBox="0 0 18 20" fill="none" xmlns="http://www.w3.org/2000/svg">
<path d="M16.507 12.49C17.161 11.2619 17.5021 9.89141 17.5 8.5C17.5 3.8055 13.6945 0 9.00001 0C4.30551 0 0.500012 3.8055 0.500012 8.5C0.496572 10.5051 1.20536 12.4463 2.50001 13.9775L2.51001 13.99C2.51351 13.993 2.51651 13.997 2.51901 14H2.50001L7.54401 19.355C7.73099 19.5535 7.95659 19.7116 8.20693 19.8197C8.45728 19.9278 8.72708 19.9836 8.99976 19.9836C9.27245 19.9836 9.54225 19.9278 9.79259 19.8197C10.0429 19.7116 10.2685 19.5535 10.4555 19.355L15.5 14H15.481L15.489 13.9905L15.49 13.9895C15.526 13.9465 15.562 13.9035 15.5975 13.8595C15.9443 13.4333 16.2491 12.9744 16.5075 12.4895L16.507 12.49ZM9.00201 11.75C8.20636 11.75 7.4433 11.4339 6.88069 10.8713C6.31808 10.3087 6.00201 9.54565 6.00201 8.75C6.00201 7.95435 6.31808 7.19129 6.88069 6.62868C7.4433 6.06607 8.20636 5.75 9.00201 5.75C9.79766 5.75 10.5607 6.06607 11.1233 6.62868C11.6859 7.19129 12.002 7.95435 12.002 8.75C12.002 9.54565 11.6859 10.3087 11.1233 10.8713C10.5607 11.4339 9.79766 11.75 9.00201 11.75Z" fill="black"/>
</svg>
