<svg width="32" height="32" viewBox="0 0 32 32" fill="none" xmlns="http://www.w3.org/2000/svg">
<g clip-path="url(#clip0_119_1678)">
<path d="M13 5.71429C13 4.90601 13.3161 4.13084 13.8787 3.5593C14.4413 2.98776 15.2044 2.66667 16 2.66667C16.7956 2.66667 17.5587 2.98776 18.1213 3.5593C18.6839 4.13084 19 4.90601 19 5.71429C20.7226 6.54176 22.1911 7.82984 23.2481 9.44046C24.305 11.0511 24.9107 12.9235 25 14.8571V19.4286C25.1129 20.3759 25.4432 21.2831 25.9642 22.0771C26.4853 22.8712 27.1826 23.5298 28 24H4C4.81741 23.5298 5.51471 22.8712 6.03578 22.0771C6.55685 21.2831 6.88712 20.3759 7 19.4286V14.8571C7.08934 12.9235 7.69495 11.0511 8.75192 9.44046C9.8089 7.82984 11.2774 6.54176 13 5.71429Z" stroke="black" stroke-width="2" stroke-linecap="round" stroke-linejoin="round"/>
<path d="M12 24V25.3333C12 26.3942 12.4214 27.4116 13.1716 28.1618C13.9217 28.9119 14.9391 29.3333 16 29.3333C17.0609 29.3333 18.0783 28.9119 18.8284 28.1618C19.5786 27.4116 20 26.3942 20 25.3333V24" stroke="black" stroke-width="2" stroke-linecap="round" stroke-linejoin="round"/>
<path d="M13.3335 6.66667C13.3335 5.95942 13.6144 5.28115 14.1145 4.78105C14.6146 4.28095 15.2929 4 16.0002 4C16.7074 4 17.3857 4.28095 17.8858 4.78105C18.3859 5.28115 18.6668 5.95942 18.6668 6.66667C20.198 7.3907 21.5034 8.51777 22.4429 9.92707C23.3824 11.3364 23.9207 12.9748 24.0002 14.6667V18.6667C24.1005 19.4956 24.3941 20.2894 24.8572 20.9842C25.3204 21.6789 25.9402 22.2552 26.6668 22.6667H5.3335C6.06008 22.2552 6.67991 21.6789 7.14308 20.9842C7.60625 20.2894 7.89982 19.4956 8.00016 18.6667V14.6667C8.07958 12.9748 8.6179 11.3364 9.55743 9.92707C10.497 8.51777 11.8023 7.3907 13.3335 6.66667Z" stroke="#C39BE9" stroke-width="2" stroke-linecap="round" stroke-linejoin="round"/>
<path d="M12 22.6667V24C12 25.0609 12.4214 26.0783 13.1716 26.8284C13.9217 27.5786 14.9391 28 16 28C17.0609 28 18.0783 27.5786 18.8284 26.8284C19.5786 26.0783 20 25.0609 20 24V22.6667" stroke="#C39BE9" stroke-width="2" stroke-linecap="round" stroke-linejoin="round"/>
</g>
<defs>
<clipPath id="clip0_119_1678">
<rect width="32" height="32" fill="white"/>
</clipPath>
</defs>
</svg>
