<svg width="24" height="24" viewBox="0 0 24 24" fill="none" xmlns="http://www.w3.org/2000/svg">
<path d="M22.5828 12.6293C22.4922 14.1569 21.1278 15.105 19.7463 15.105H15.7638C14.0703 15.105 13.2227 17.1516 14.4194 18.3482C15.1149 19.0438 15.3694 19.9965 15.1771 20.8317C14.9798 21.6887 14.3103 22.4006 13.2651 22.5245M22.5828 12.6293C22.712 10.4558 22.1688 8.29532 21.0271 6.44143C19.8853 4.58752 18.2003 3.13018 16.2011 2.26754C14.202 1.40489 11.9857 1.1788 9.85358 1.61999C7.72144 2.06118 5.77688 3.14826 4.28425 4.73343C2.79163 6.3186 1.82336 8.32496 1.51107 10.4798C1.19878 12.6346 1.55763 14.8333 2.53883 16.7769C3.52003 18.7206 5.07597 20.315 6.99514 21.3434C8.91424 22.3717 11.1034 22.7841 13.2651 22.5245M22.5828 12.6293C22.5828 12.6293 22.5828 12.6293 22.5828 12.6294L21.9838 12.5938L22.5828 12.6293ZM13.2651 22.5245C13.2649 22.5245 13.2646 22.5246 13.2643 22.5246L13.1938 21.9288L13.2654 22.5245C13.2653 22.5245 13.2652 22.5245 13.2651 22.5245ZM19.5245 12.03H15.7638C11.7827 12.03 9.58574 16.3544 11.4517 19.5051C10.3224 19.4227 9.22098 19.086 8.23213 18.5141C6.90432 17.7462 5.84291 16.5908 5.19009 15.2027C4.53727 13.8147 4.32423 12.2603 4.57951 10.7478C4.83479 9.23528 5.54619 7.83691 6.61841 6.74001C7.69063 5.64312 9.07245 4.90009 10.5788 4.61047C12.0851 4.32085 13.6439 4.49848 15.0464 5.11955C16.449 5.74062 17.6282 6.77548 18.4262 8.08547C19.1512 9.27582 19.53 10.6417 19.5245 12.03ZM14.5582 9.55815C14.9052 9.21121 15.1001 8.74066 15.1001 8.25001C15.1001 7.75936 14.9052 7.2888 14.5582 6.94186C14.2113 6.59492 13.7407 6.40001 13.2501 6.40001C12.7594 6.40001 12.2889 6.59492 11.9419 6.94186C11.595 7.2888 11.4001 7.75936 11.4001 8.25001C11.4001 8.74066 11.595 9.21121 11.9419 9.55815C12.2889 9.9051 12.7594 10.1 13.2501 10.1C13.7407 10.1 14.2113 9.9051 14.5582 9.55815ZM9.50009 11.35C9.99074 11.35 10.4613 11.1551 10.8082 10.8082C11.1552 10.4612 11.3501 9.99066 11.3501 9.50001C11.3501 9.00936 11.1552 8.5388 10.8082 8.19186C10.4613 7.84492 9.99074 7.65001 9.50009 7.65001C9.00944 7.65001 8.53888 7.84492 8.19194 8.19186C7.845 8.5388 7.65009 9.00936 7.65009 9.50001C7.65009 9.99066 7.845 10.4612 8.19194 10.8082C8.53888 11.1551 9.00944 11.35 9.50009 11.35ZM9.55823 14.5582C9.90518 14.2112 10.1001 13.7407 10.1001 13.25C10.1001 12.7594 9.90518 12.2888 9.55823 11.9419C9.21129 11.5949 8.74074 11.4 8.25009 11.4C7.75944 11.4 7.28888 11.5949 6.94194 11.9419C6.595 12.2888 6.40009 12.7594 6.40009 13.25C6.40009 13.7407 6.595 14.2112 6.94194 14.5582C7.28888 14.9051 7.75944 15.1 8.25009 15.1C8.74074 15.1 9.21129 14.9051 9.55823 14.5582Z" fill="#C39BE9" stroke="black" stroke-width="1.2"/>
</svg>
