<svg width="33" height="16" viewBox="0 0 33 16" fill="none" xmlns="http://www.w3.org/2000/svg">
<path d="M24.496 16H23.1653C23.1653 13.9307 23.2453 13.6333 21.992 13.3427C20.0747 12.9 18.2627 12.4827 17.6013 11.0373C17.3613 10.5093 17.2 9.64 17.808 8.49467C19.1693 5.92267 19.5107 3.71733 18.744 2.444C17.848 0.957334 15.1347 0.950667 14.2307 2.46667C13.4627 3.75733 13.8093 5.95067 15.1813 8.48267C15.8013 9.624 15.6453 10.496 15.4053 11.0267C14.752 12.4787 12.9573 12.8933 11.056 13.3307C9.74667 13.6333 9.82933 13.9107 9.82933 16H8.50267L8.5 15.1693C8.5 13.4907 8.63333 12.5227 10.6173 12.064C12.86 11.5453 15.076 11.0827 14.0107 9.11867C10.856 3.29867 13.1093 0 16.4973 0C19.82 0 22.1333 3.17733 18.9867 9.11867C17.9533 11.0707 20.0853 11.5347 22.38 12.064C24.3667 12.5227 24.4987 13.4933 24.4987 15.1747L24.496 16ZM30.9093 13.048C29.1907 12.6507 27.5907 12.3027 28.3653 10.8387C30.7253 6.38267 28.992 4 26.4987 4C24.812 4 23.5013 5.08933 23.5013 7.1C23.5013 8.792 24.2667 10 24.7067 11H26.104C25.8773 10 24.1493 7.584 25.0827 6.01867C25.632 5.096 27.3547 5.09467 27.9013 6.00267C28.408 6.844 28.1427 8.41867 27.1893 10.2173C26.672 11.1947 26.816 11.952 27.028 12.4147C27.4347 13.3027 28.3307 13.7307 29.344 14.0253C31.3533 14.6133 31.168 14.0813 31.168 15.9987H32.4973L32.5 15.3813C32.5 14.1213 32.4013 13.392 30.9093 13.048ZM0.502667 16H1.832C1.832 14.0827 1.64667 14.6147 3.656 14.0267C4.67067 13.732 5.56667 13.304 5.972 12.416C6.184 11.952 6.328 11.196 5.81067 10.2187C4.85733 8.42 4.592 6.84533 5.09867 6.004C5.64533 5.09467 7.368 5.096 7.91733 6.02C8.85067 7.58667 7.12267 10.0013 6.896 11.0013H8.29333C8.73333 10.0013 9.49867 8.79333 9.49867 7.10133C9.5 5.08933 8.18933 4 6.50267 4C4.00933 4 2.276 6.38267 4.636 10.8387C5.41067 12.304 3.81067 12.6507 2.092 13.048C0.598667 13.392 0.5 14.1213 0.5 15.3827L0.502667 16Z" fill="#7D7995"/>
</svg>
