<svg width="41" height="44" viewBox="0 0 41 44" fill="none" xmlns="http://www.w3.org/2000/svg">
<path d="M4 21.9925C4.15486 21.8234 4.37804 21.5952 4.63601 21.547C8.38129 20.8478 11.7442 19.4158 14.2864 16.5257C16.0544 14.5158 16.9836 12.0804 17.6486 9.53421C17.8733 8.67338 18.1856 7.83464 18.6088 7C19.8638 15.315 24.4248 20.3773 33 21.9419C31.5694 22.4409 30.148 22.9677 28.7063 23.4337C24.6648 24.7399 21.8855 27.3625 20.3794 31.2429C19.6655 33.0822 19.1425 34.9931 18.4914 37C17.9952 35.5018 17.4598 33.9813 16.988 32.442C15.8132 28.6094 13.4462 25.747 9.74766 24.0744C7.92478 23.2501 5.97623 22.6943 4 21.9925Z" fill="#FF97D9" stroke="black" stroke-width="4"/>
</svg>
