<svg width="32" height="32" viewBox="0 0 32 32" fill="none" xmlns="http://www.w3.org/2000/svg">
<path d="M16.2437 0.785057L16 0.676753L15.7563 0.785057L3.75632 6.11839L3.4 6.27675V6.66668V14.6667C3.4 22.3183 8.68557 29.4982 15.8577 31.2496L16 31.2843L16.1423 31.2496C23.3144 29.4982 28.6 22.3183 28.6 14.6667V6.66668V6.27675L28.2437 6.11839L16.2437 0.785057ZM22.3438 22.3293L22.3438 22.3292L22.3377 22.3385C20.8327 24.6422 18.6009 26.3742 16 27.2611C13.3991 26.3742 11.1673 24.6422 9.66231 22.3385L9.6624 22.3385L9.65616 22.3293C9.24632 21.7266 8.89712 21.1301 8.60536 20.5068C8.6692 19.7895 9.30578 18.9964 10.6231 18.3385C11.976 17.6628 13.8807 17.2267 16 17.2267C18.1215 17.2267 20.0263 17.6536 21.3784 18.3242C22.6936 18.9765 23.3322 19.7699 23.3949 20.5064C23.1031 21.1298 22.7538 21.7264 22.3438 22.3293ZM16 7.26668C16.9017 7.26668 17.7665 7.62489 18.4042 8.26251C19.0418 8.90014 19.4 9.76494 19.4 10.6667C19.4 11.5684 19.0418 12.4332 18.4042 13.0708C17.7665 13.7085 16.9017 14.0667 16 14.0667C15.0983 14.0667 14.2335 13.7085 13.5958 13.0708C12.9582 12.4332 12.6 11.5684 12.6 10.6667C12.6 9.76494 12.9582 8.90014 13.5958 8.26251C14.2335 7.62489 15.0983 7.26668 16 7.26668Z" fill="#C39BE9" stroke="black" stroke-width="1.2"/>
</svg>
