<svg width="30" height="30" viewBox="0 0 30 30" fill="none" xmlns="http://www.w3.org/2000/svg">
<path d="M9.59533 2.16514L9.59558 2.16503C11.2952 1.4321 13.0985 1.06666 14.9998 1.06666C16.9223 1.06666 18.7317 1.4317 20.4215 2.16566L20.4217 2.16572C22.1004 2.89535 23.5747 3.89345 24.8399 5.15957C26.1063 6.42496 27.1041 7.89945 27.8329 9.57841C28.5677 11.2682 28.9332 13.0776 28.9332 15C28.9332 16.9013 28.5673 18.7046 27.8335 20.4042C27.1048 22.0939 26.107 23.5742 24.8401 24.8403C23.5747 26.1065 22.1003 27.1042 20.4214 27.833C18.7316 28.5678 16.9223 28.9333 14.9998 28.9333C13.0985 28.9333 11.2952 28.5674 9.59558 27.8336C7.90585 27.1049 6.42547 26.1071 5.15942 24.8401C3.89265 23.5742 2.89492 22.094 2.16633 20.4045C1.43243 18.7048 1.0665 16.9014 1.0665 15C1.0665 13.0775 1.43201 11.2681 2.16687 9.57823L9.59533 2.16514ZM9.59533 2.16514C7.90578 2.89466 6.42553 3.89288 5.15957 5.15973M9.59533 2.16514L5.15957 5.15973M5.15957 5.15973C3.89342 6.42499 2.89572 7.8993 2.16695 9.57804L5.15957 5.15973ZM9.26423 9.06666C9.44868 8.36013 9.66825 7.67205 9.92308 7.00255C10.04 6.69476 10.1644 6.39096 10.2963 6.09119C9.68858 6.40372 9.12507 6.7812 8.60468 7.2236L9.26423 9.06666ZM9.26423 9.06666H6.90267M9.26423 9.06666H6.90267M6.90267 9.06666C7.39505 8.38435 7.96217 7.77038 8.60448 7.22378L6.90267 9.06666ZM21.3939 22.7762L21.3937 22.7764C20.874 23.2186 20.3111 23.596 19.7039 23.9084C19.8359 23.6084 19.9606 23.3043 20.0779 22.9961L20.0781 22.9958C20.3321 22.3271 20.5512 21.6396 20.7355 20.9333H23.0969C22.6043 21.6156 22.0368 22.2296 21.3939 22.7762ZM8.45089 16.3948L8.45098 16.3959C8.4683 16.6183 8.48978 16.8419 8.51543 17.0667H5.14467C5.08931 16.7994 5.04478 16.5349 5.01097 16.273C4.95931 15.8671 4.93317 15.4429 4.93317 15C4.93317 14.5571 4.95931 14.1329 5.01097 13.727C5.04478 13.4651 5.08931 13.2006 5.14467 12.9333H8.51543C8.48978 13.1581 8.4683 13.3817 8.45098 13.6041L8.45089 13.6052C8.41678 14.0543 8.39984 14.5193 8.39984 15C8.39984 15.4807 8.41678 15.9457 8.45089 16.3948ZM12.3154 13.6973L12.3155 13.696C12.3346 13.4439 12.3596 13.1897 12.3906 12.9333H17.6093C17.6405 13.1897 17.6659 13.444 17.6856 13.6961C17.7172 14.1128 17.7332 14.5474 17.7332 15C17.7332 15.4526 17.7172 15.8872 17.6856 16.3039C17.6659 16.556 17.6405 16.8103 17.6093 17.0667H12.3906C12.3596 16.8103 12.3346 16.5561 12.3155 16.304L12.3154 16.3026C12.2829 15.8864 12.2665 15.4522 12.2665 15C12.2665 14.5478 12.2829 14.1136 12.3154 13.6973ZM21.3937 7.2236L21.3939 7.22378C22.0368 7.7704 22.6043 8.38436 23.0969 9.06666H20.7355C20.5512 8.36033 20.3321 7.67242 20.0781 7.0031L20.0778 7.00234C19.9606 6.69479 19.8361 6.39123 19.7041 6.09169C20.3112 6.40413 20.8741 6.78145 21.3937 7.2236ZM15.9604 22.8372C15.6769 23.4192 15.3568 23.986 14.9998 24.5377C14.6429 23.986 14.3228 23.4192 14.0392 22.8372C13.7445 22.2322 13.4886 21.5977 13.272 20.9333H16.7277C16.5111 21.5977 16.2552 22.2322 15.9604 22.8372ZM9.92287 22.9955C10.04 23.3041 10.1645 23.6086 10.2965 23.9089C9.68876 23.5964 9.12515 23.2188 8.60468 22.7764C7.96229 22.2297 7.3951 21.6157 6.90267 20.9333H9.26425C9.44863 21.6395 9.66813 22.3269 9.92287 22.9955ZM24.9888 16.2726C24.9549 16.5346 24.9104 16.7993 24.855 17.0667H21.4839C21.5093 16.8417 21.5305 16.6179 21.5474 16.3953C21.5824 15.946 21.5998 15.4809 21.5998 15C21.5998 14.5191 21.5824 14.054 21.5474 13.6046C21.5305 13.382 21.5093 13.1583 21.4839 12.9333H24.855C24.9104 13.2007 24.9549 13.4654 24.9888 13.7273C25.0404 14.1332 25.0665 14.5573 25.0665 15C25.0665 15.4427 25.0404 15.8668 24.9888 16.2726ZM15.9604 7.16277C16.2552 7.76782 16.5111 8.40233 16.7277 9.06666H13.272C13.4886 8.40233 13.7445 7.76782 14.0392 7.16277C14.3228 6.5808 14.6429 6.01398 14.9998 5.46227C15.3568 6.01398 15.6769 6.5808 15.9604 7.16277Z" fill="#C39BE9" stroke="black" stroke-width="1.2"/>
</svg>
