<svg width="25" height="24" viewBox="0 0 25 24" fill="none" xmlns="http://www.w3.org/2000/svg">
<path d="M24.5 14.187V9.813C22.352 9.047 21.774 9.011 21.473 8.284C21.17 7.555 21.556 7.115 22.532 5.061L19.439 1.968C17.413 2.931 16.951 3.332 16.215 3.027C15.488 2.725 15.447 2.138 14.688 0H10.313C9.549 2.144 9.513 2.725 8.784 3.027C8.032 3.34 7.581 2.927 5.561 1.968L2.468 5.061C3.445 7.116 3.83 7.554 3.527 8.285C3.225 9.012 2.646 9.049 0.5 9.813V14.188C2.639 14.948 3.225 14.988 3.527 15.716C3.831 16.45 3.446 16.883 2.468 18.939L5.561 22.032C7.56 21.082 8.031 20.659 8.784 20.973C9.512 21.275 9.548 21.853 10.313 24H14.687C15.445 21.869 15.486 21.277 16.224 20.969C16.969 20.661 17.41 21.068 19.439 22.031L22.532 18.938C21.557 16.888 21.17 16.446 21.473 15.715C21.773 14.989 22.353 14.952 24.5 14.187ZM19.625 14.951C19.048 16.345 19.557 17.409 20.113 18.529L19.029 19.613C17.936 19.07 16.868 18.537 15.456 19.123C14.06 19.704 13.666 20.816 13.268 22H11.734C11.336 20.815 10.943 19.703 9.551 19.125C8.132 18.537 7.044 19.08 5.972 19.613L4.889 18.529C5.446 17.411 5.955 16.349 5.376 14.949C4.797 13.558 3.685 13.165 2.5 12.767V11.234C3.685 10.836 4.797 10.443 5.375 9.05C5.953 7.656 5.443 6.591 4.887 5.471L5.971 4.387C7.053 4.925 8.133 5.464 9.551 4.875C10.943 4.298 11.336 3.185 11.734 2H13.268C13.666 3.185 14.06 4.297 15.452 4.875C16.871 5.463 17.958 4.92 19.031 4.387L20.115 5.471C19.559 6.592 19.05 7.658 19.627 9.051C20.204 10.442 21.316 10.835 22.502 11.234V12.768C21.314 13.166 20.2 13.559 19.625 14.951ZM12.5 9C14.154 9 15.5 10.346 15.5 12C15.5 13.654 14.154 15 12.5 15C10.846 15 9.5 13.654 9.5 12C9.5 10.346 10.846 9 12.5 9ZM12.5 7C9.738 7 7.5 9.238 7.5 12C7.5 14.762 9.738 17 12.5 17C15.262 17 17.5 14.762 17.5 12C17.5 9.238 15.262 7 12.5 7Z" fill="#7D7995"/>
</svg>
