<svg width="28" height="28" viewBox="0 0 28 28" fill="none" xmlns="http://www.w3.org/2000/svg">
<path d="M15.3332 23.9333H15.9332V23.3333V20.6667V20.0667H15.3332H12.6665H12.0665V20.6667V23.3333V23.9333H12.6665H15.3332ZM17.3204 14.648L17.3221 14.6462L18.5198 13.4219C19.3863 12.5541 19.9332 11.3376 19.9332 9.99999C19.9332 6.72195 17.2779 4.06666 13.9998 4.06666C10.7218 4.06666 8.0665 6.72195 8.0665 9.99999V10.6H8.6665H11.3332H11.9332V9.99999C11.9332 8.86469 12.8645 7.93332 13.9998 7.93332C15.1351 7.93332 16.0665 8.86469 16.0665 9.99999C16.0665 10.57 15.8396 11.082 15.4614 11.45L15.4613 11.4499L15.4522 11.4591L13.7993 13.1387C12.7353 14.2175 12.0665 15.6997 12.0665 17.3333V18V18.6H12.6665H15.3332H15.9332V18C15.9332 17.0613 16.0737 16.4546 16.2957 15.9846C16.5205 15.5087 16.8502 15.1247 17.3204 14.648ZM1.2665 14C1.2665 6.97136 6.97121 1.26666 13.9998 1.26666C21.0285 1.26666 26.7332 6.97136 26.7332 14C26.7332 21.0286 21.0285 26.7333 13.9998 26.7333C6.97121 26.7333 1.2665 21.0286 1.2665 14Z" fill="#C39BE9" stroke="black" stroke-width="1.2"/>
</svg>
