<svg width="32" height="17" viewBox="0 0 32 17" fill="none" xmlns="http://www.w3.org/2000/svg">
<path d="M2.83455 16H2.83333C2.32175 16 1.90816 15.8294 1.53869 15.4599C1.16926 15.0905 0.999383 14.6777 1 14.1679V14.1667C1 13.6551 1.17064 13.2415 1.54011 12.872C1.90955 12.5026 2.32226 12.3327 2.83212 12.3333H2.83333H3.172L3.78251 12.5775L4.24877 12.1113L10.6946 5.66544L11.1609 5.19918L10.9167 4.58867V4.25C10.9167 3.73841 11.0873 3.32483 11.4568 2.95536C11.8262 2.58592 12.2389 2.41605 12.7488 2.41667H12.75C13.2616 2.41667 13.6752 2.5873 14.0446 2.95677C14.4087 3.32087 14.579 3.72701 14.5833 4.22674C14.583 4.22984 14.5827 4.23351 14.5824 4.23779C14.5801 4.26531 14.5762 4.30636 14.5706 4.363C14.5593 4.47562 14.5421 4.63666 14.5186 4.8479L14.4655 5.32559L14.8054 5.66544L18.4179 9.27794L18.8842 9.7442L19.4947 9.5H20.172L20.7825 9.7442L21.2488 9.27794L26.2779 4.24877L26.7442 3.78251L26.5 3.17201V2.83333C26.5 2.32174 26.6706 1.90816 27.0401 1.53869L26.3397 0.83832L27.0401 1.53869C27.4095 1.16926 27.8223 0.999383 28.3321 1H28.3333C28.8449 1 29.2585 1.17064 29.628 1.54011C29.9974 1.90955 30.1673 2.32226 30.1667 2.83212V2.83333C30.1667 3.34492 29.996 3.75851 29.6266 4.12798C29.2571 4.49741 28.8444 4.66729 28.3345 4.66667H28.3333H27.9947L27.3841 4.42246L26.9179 4.88873L21.8887 9.91789L21.4225 10.3842L21.6667 10.9947V11.3333C21.6667 11.8449 21.496 12.2585 21.1266 12.628C20.7571 12.9974 20.3444 13.1673 19.8345 13.1667H19.8333C19.3217 13.1667 18.9082 12.996 18.5387 12.6266C18.1692 12.2571 17.9994 11.8444 18 11.3345V11.3333V10.9947L18.2442 10.3842L17.7779 9.91789L14.1654 6.30539L13.6992 5.83913L13.0887 6.08333H12.7743C12.771 6.08308 12.767 6.08276 12.7622 6.08236C12.7347 6.08007 12.6936 6.07625 12.637 6.07059C12.5244 6.05933 12.3633 6.04209 12.1521 6.01862L11.6744 5.96554L11.3346 6.30539L4.88873 12.7512L4.42246 13.2175L4.66667 13.828V14.1667C4.66667 14.6783 4.49603 15.0918 4.12656 15.4613C3.75712 15.8307 3.34441 16.0006 2.83455 16Z" fill="#F8D3A2" stroke="#F8D3A2" stroke-width="2"/>
</svg>
