<svg width="28" height="23" viewBox="0 0 28 23" fill="none" xmlns="http://www.w3.org/2000/svg">
<path d="M22.543 7.10403C22.5576 7.31571 22.5576 7.52721 22.5576 7.74078C22.5576 14.247 17.6044 21.7508 8.54763 21.7508V21.747C5.87202 21.7508 3.25186 20.9844 1 19.5394C1.38906 19.5863 1.78 19.6097 2.17188 19.6107C4.38946 19.6124 6.54326 18.8687 8.28719 17.4988C7.25968 17.4794 6.26393 17.1394 5.43914 16.5263C4.61436 15.9132 4.00178 15.0577 3.68706 14.0794C4.42525 14.2219 5.18575 14.1925 5.91025 13.9945C3.613 13.5304 1.96038 11.5122 1.96038 9.16821V9.10578C2.64518 9.48728 3.41163 9.69865 4.19519 9.72209C2.03125 8.27609 1.36469 5.39778 2.67119 3.14759C3.90736 4.66871 5.44967 5.91279 7.19797 6.79902C8.94626 7.68525 10.8614 8.1938 12.8191 8.29165C12.6239 7.45142 12.6528 6.57469 12.9028 5.74912C13.1528 4.92355 13.6152 4.17809 14.2437 3.58728C16.2269 1.72296 19.3459 1.81859 21.2101 3.80084C22.3128 3.5831 23.3703 3.1788 24.337 2.60534C23.9694 3.74547 23.2002 4.71328 22.1725 5.32878C23.1486 5.21369 24.1017 4.95233 25 4.55346C24.3392 5.54302 23.5072 6.40674 22.543 7.10403Z" fill="#1D9BF0" stroke="black" stroke-width="1.5"/>
</svg>
