<svg width="37" height="46" viewBox="0 0 37 46" fill="none" xmlns="http://www.w3.org/2000/svg">
<path d="M4 22.992C4.17088 22.8116 4.41715 22.5682 4.7018 22.5168C8.83453 21.771 12.5453 20.2435 15.3505 17.1608C17.3014 15.0169 18.3268 12.4191 19.0605 9.70316C19.3085 8.78494 19.6531 7.89028 20.1201 7C21.5049 15.8693 26.5377 21.2691 36 22.938C34.4214 23.4703 32.853 24.0322 31.2622 24.5292C26.8026 25.9225 23.7358 28.72 22.0738 32.8591C21.286 34.821 20.709 36.8593 19.9905 39C19.4429 37.4019 18.8522 35.78 18.3315 34.1381C17.0352 30.05 14.4234 26.9968 10.3422 25.2127C8.33079 24.3334 6.18067 23.7406 4 22.992Z" fill="#FFD000" stroke="black" stroke-width="4"/>
</svg>
